<?xml version="1.0" encoding="utf-8"?>
<svg viewBox="3.25 73.15 512.75 610.85" xmlns="http://www.w3.org/2000/svg">
  <g transform="matrix(0.1, 0, 0, -0.1, 0, 684.00001)" fill="#009bff" stroke="none">
    <path d="M2671 6092 c-24 -17 -70 -18 -371 -11 -70 1 -91 -8 -174 -70 -37 -28 -74 -51 -83 -51 -19 0 -78 -35 -113 -67 -14 -13 -31 -23 -38 -23 -19 0 -90 -57 -139 -110 -22 -25 -51 -70 -63 -100 -13 -30 -28 -62 -34 -70 -35 -48 -76 -164 -76 -218 0 -20 -7 -46 -15 -56 -9 -12 -15 -42 -15 -76 0 -31 -4 -60 -9 -65 -16 -19 -39 -111 -46 -185 -7 -83 4 -177 30 -260 29 -93 30 -145 5 -194 -27 -51 -19 -99 19 -104 12 -2 25 -11 28 -20 3 -9 11 -31 19 -49 8 -17 14 -39 14 -48 0 -9 5 -26 11 -37 18 -33 40 -165 49 -283 4 -61 12 -121 19 -132 6 -12 11 -38 11 -57 0 -41 26 -124 46 -147 8 -8 14 -25 14 -36 0 -12 6 -34 14 -50 49 -100 51 -112 76 -396 5 -59 14 -116 20 -127 5 -10 10 -38 10 -62 0 -24 5 -61 11 -83 18 -69 20 -96 19 -240 0 -112 3 -148 17 -180 16 -38 60 -102 93 -135 17 -17 89 -42 101 -35 7 5 -31 109 -45 123 -4 4 -14 21 -22 37 -7 17 -18 37 -22 45 -31 53 -42 82 -42 114 0 20 -9 71 -19 114 -10 42 -24 113 -29 157 -16 122 -31 207 -41 235 -5 14 -12 58 -16 98 -6 70 -6 72 17 72 24 -1 78 -62 97 -112 5 -15 24 -37 40 -49 17 -13 31 -28 31 -35 0 -12 128 -94 146 -94 4 0 15 -7 24 -15 35 -31 202 -58 225 -36 6 5 30 13 55 19 92 21 276 102 318 140 19 17 46 32 60 34 18 2 31 13 40 30 7 16 31 42 53 60 25 20 39 40 39 55 0 16 6 23 20 23 13 0 25 10 31 28 24 59 35 77 51 90 9 6 22 29 29 50 18 54 57 112 72 107 12 -5 16 8 48 160 6 28 15 58 20 67 5 10 5 19 -1 23 -15 9 -12 61 6 103 8 20 17 73 19 117 2 44 8 92 13 106 6 15 8 36 5 47 -3 12 2 35 11 53 9 18 16 42 16 53 0 12 16 43 35 70 19 27 35 57 35 66 0 27 11 30 41 14 21 -10 29 -22 29 -41 0 -20 3 -24 11 -16 15 15 -5 66 -34 94 -16 15 -21 32 -22 81 0 35 3 77 8 93 19 65 28 134 27 216 -1 53 3 90 9 94 8 4 8 12 1 25 -5 10 -11 51 -12 92 -3 71 -2 75 29 108 18 19 36 50 39 68 9 47 -2 114 -20 124 -9 5 -16 15 -16 22 0 8 -7 19 -15 26 -8 7 -15 27 -15 46 0 25 -10 43 -45 80 -32 33 -44 52 -40 65 5 16 1 19 -28 19 -32 0 -37 5 -57 44 -20 43 -43 62 -61 50 -5 -3 -9 -11 -9 -19 0 -9 -15 -13 -51 -13 -52 -1 -76 -12 -65 -30 6 -10 62 -22 106 -23 32 -1 60 -16 60 -33 0 -8 7 -19 15 -26 8 -7 15 -22 15 -35 0 -19 -6 -22 -44 -23 -35 -2 -46 2 -49 15 -2 10 -2 7 0 -7 3 -14 7 -53 10 -87 5 -61 13 -73 39 -55 6 4 11 28 11 53 0 57 7 69 43 69 15 0 30 5 32 12 8 24 29 -5 27 -37 -2 -18 2 -39 9 -47 9 -11 9 -22 0 -46 -10 -25 -10 -34 0 -44 9 -9 17 -7 36 11 14 13 29 20 34 17 15 -9 24 -90 13 -118 -9 -23 -14 -25 -54 -21 -51 6 -94 -16 -99 -50 -2 -14 -9 -21 -20 -19 -29 5 -31 -18 -4 -52 22 -29 23 -36 11 -46 -19 -16 -7 -43 16 -37 24 6 24 1 -1 -30 -11 -14 -20 -38 -20 -53 0 -41 -30 -63 -82 -58 -42 3 -43 2 -46 -29 -3 -33 17 -83 48 -118 10 -11 29 -54 43 -95 28 -80 30 -117 20 -327 -4 -99 -7 -112 -24 -116 -10 -3 -19 -12 -19 -21 0 -9 -7 -16 -15 -16 -17 0 -20 -16 -4 -25 6 -4 9 -24 8 -44 -2 -20 1 -42 5 -49 5 -8 2 -20 -7 -30 -16 -19 -29 -132 -17 -151 7 -13 -6 -83 -21 -113 -5 -10 -9 -27 -9 -38 0 -12 -9 -40 -20 -62 -11 -23 -20 -48 -20 -55 0 -21 -40 -91 -56 -97 -8 -3 -14 -13 -14 -23 0 -10 -17 -36 -39 -58 -21 -22 -53 -65 -71 -95 -75 -123 -119 -169 -156 -162 -17 3 -24 0 -24 -11 0 -16 -61 -57 -86 -57 -8 0 -14 8 -14 18 0 13 -2 14 -9 3 -5 -7 -6 -22 -4 -32 4 -15 0 -19 -18 -19 -12 0 -30 -6 -38 -14 -21 -18 -89 -33 -182 -42 -65 -5 -78 -4 -93 12 -16 16 -20 16 -30 2 -25 -34 -51 -30 -82 12 -32 43 -47 48 -71 24 -10 -10 -19 -12 -25 -6 -16 16 -4 47 20 50 26 4 28 14 6 47 -21 32 -32 32 -40 0 -7 -28 -8 -29 -32 -16 -9 5 -25 12 -35 15 -14 5 -16 10 -7 25 8 17 6 22 -11 32 -15 8 -18 14 -10 22 16 16 14 47 -3 47 -8 0 -18 -9 -21 -21 -7 -20 -8 -20 -36 10 -53 59 -77 96 -88 139 -7 23 -16 42 -20 42 -5 0 -16 17 -24 38 -8 20 -31 71 -51 113 -20 42 -36 89 -36 103 0 15 -7 41 -16 57 -8 17 -13 37 -11 44 3 7 -1 66 -9 131 -9 66 -13 135 -11 154 3 25 -1 41 -15 56 -30 33 -41 117 -40 284 2 154 11 228 36 285 7 17 21 47 30 68 9 21 16 49 16 63 0 21 -3 24 -25 18 -31 -8 -31 0 -1 67 33 76 39 99 27 99 -6 0 -11 -7 -11 -14 0 -8 -16 -27 -35 -42 -27 -20 -35 -34 -35 -58 0 -40 -17 -63 -52 -71 -20 -5 -29 -2 -37 13 -18 33 -13 59 12 66 22 6 22 7 2 21 -19 15 -18 16 15 47 26 23 35 40 36 66 1 37 -21 55 -38 31 -15 -22 2 32 18 59 8 12 21 22 29 22 9 0 15 10 15 26 0 21 -4 25 -20 21 -26 -7 -26 9 0 23 18 10 20 17 14 59 -5 39 -3 51 12 66 32 31 54 69 54 93 0 14 9 27 26 34 20 9 24 17 19 35 -7 30 19 109 51 151 41 53 128 112 167 112 18 0 42 7 53 15 10 8 28 15 39 15 11 0 29 6 40 14 11 7 39 17 62 21 24 4 45 11 49 16 3 5 16 9 29 9 14 0 29 8 34 19 13 23 128 44 247 45 63 1 86 5 101 18 18 17 21 17 59 -3 33 -18 50 -20 117 -15 l77 6 0 -25 c0 -22 3 -24 30 -18 27 5 30 3 30 -19 0 -33 10 -41 27 -20 12 16 14 16 28 -2 8 -11 15 -34 15 -51 0 -17 7 -41 16 -53 l16 -23 34 26 c39 30 69 27 59 -5 -7 -22 2 -25 39 -10 18 6 26 17 26 33 0 13 5 28 10 33 7 7 7 25 2 49 l-7 38 -32 -32 c-32 -32 -57 -38 -83 -21 -13 9 -13 12 4 25 18 13 18 15 -2 42 -51 70 -75 83 -162 89 -45 3 -93 9 -106 14 -14 6 -40 10 -57 10 -18 0 -41 7 -51 15 -25 19 -35 18 -65 -3z m-338 -97 c1 -5 -6 -11 -15 -13 -11 -2 -18 3 -18 13 0 17 30 18 33 0z m-81 -28 c-24 -11 -38 -5 -28 11 3 6 16 8 28 4 l22 -5 -22 -10z m1168 -736 c0 -17 -18 -31 -41 -31 -13 0 -11 24 3 38 18 18 38 14 38 -7z m18 -125 c6 -30 -15 -42 -38 -21 -15 14 -17 21 -8 32 15 18 42 12 46 -11z m-28 -95 c0 -36 -12 -51 -40 -51 -16 0 -18 28 -3 58 22 45 43 42 43 -7z m-5 -92 c-4 -5 -18 -6 -32 -3 -24 6 -25 5 -19 -17 5 -13 10 -36 13 -52 3 -15 17 -36 30 -47 21 -16 24 -25 18 -47 -3 -16 -9 -46 -12 -68 -6 -35 -7 -37 -13 -15 -4 18 -14 26 -33 28 -21 3 -27 9 -27 27 0 13 5 27 10 30 17 10 11 53 -7 60 -28 9 -93 73 -93 91 0 13 8 15 43 10 33 -4 48 -2 67 13 18 14 29 17 42 10 10 -6 16 -14 13 -20z m-1717 -56 c2 -8 -5 -13 -17 -13 -21 0 -35 13 -24 24 10 10 36 3 41 -11z m1367 -1470 c-28 -20 -39 -3 -13 20 18 17 24 19 27 8 2 -8 -5 -20 -14 -28z"/>
    <path d="M2653 5963 c-22 -8 -14 -23 13 -23 15 0 24 5 22 12 -5 14 -18 18 -35 11z"/>
    <path d="M2318 5902 c-16 -2 -28 -7 -28 -12 0 -5 12 -17 28 -27 15 -9 35 -24 44 -32 37 -34 48 -41 63 -41 8 0 15 7 15 15 0 8 -7 15 -15 15 -18 0 -39 36 -25 45 5 3 10 14 10 24 0 18 -22 21 -92 13z"/>
    <path d="M2759 5877 c-14 -19 -14 -26 -4 -40 14 -20 61 -24 49 -5 -5 7 -7 25 -6 40 3 34 -16 36 -39 5z"/>
    <path d="M2915 5861 c-3 -5 -1 -12 5 -16 19 -12 10 -34 -20 -52 -16 -9 -30 -23 -30 -30 0 -18 19 -16 26 2 4 8 14 15 25 15 27 0 44 37 30 66 -11 25 -26 31 -36 15z"/>
    <path d="M2250 5790 c-8 -5 -12 -11 -9 -15 8 -8 69 6 69 16 0 12 -41 11 -60 -1z"/>
    <path d="M2460 5770 c0 -5 7 -10 15 -10 8 0 15 5 15 10 0 6 -7 10 -15 10 -8 0 -15 -4 -15 -10z"/>
    <path d="M2960 5755 c0 -8 5 -15 10 -15 6 0 10 7 10 15 0 8 -4 15 -10 15 -5 0 -10 -7 -10 -15z"/>
    <path d="M2400 5700 c0 -5 7 -10 15 -10 8 0 15 5 15 10 0 6 -7 10 -15 10 -8 0 -15 -4 -15 -10z"/>
    <path d="M2445 5700 c-3 -5 1 -22 9 -37 l15 -28 1 38 c0 35 -12 48 -25 27z"/>
    <path d="M2772 5699 c2 -7 10 -15 17 -17 8 -3 12 1 9 9 -2 7 -10 15 -17 17 -8 3 -12 -1 -9 -9z"/>
    <path d="M2866 5685 c4 -8 10 -15 15 -15 5 0 9 7 9 15 0 8 -7 15 -15 15 -9 0 -12 -6 -9 -15z"/>
    <path d="M2336 5653 c10 -40 11 -42 49 -49 28 -5 35 -11 35 -30 0 -12 -4 -26 -10 -29 -17 -10 -11 -33 10 -40 11 -3 39 -24 62 -46 l43 -40 8 30 c4 17 12 33 17 36 16 10 12 20 -19 38 -16 10 -31 27 -33 40 -2 12 -10 22 -18 22 -9 0 -30 15 -48 33 -19 20 -39 31 -47 28 -8 -3 -19 3 -25 14 -16 30 -31 24 -24 -7z"/>
    <path d="M2703 5653 c-23 -9 -14 -22 26 -43 48 -24 64 -10 30 26 -22 24 -33 27 -56 17z"/>
    <path d="M2237 5624 c-13 -13 -7 -24 14 -24 11 0 19 5 17 12 -5 14 -22 21 -31 12z"/>
    <path d="M2658 5581 c5 -36 -11 -47 -40 -27 -23 17 -58 22 -58 9 1 -23 30 -43 62 -43 42 0 61 -16 48 -41 -8 -15 -4 -18 33 -24 42 -6 87 -21 165 -56 35 -16 42 -16 42 -4 0 27 -38 55 -74 55 -26 0 -35 5 -39 22 -8 29 -7 29 36 16 48 -15 62 -3 47 37 -6 16 -8 41 -5 57 8 35 -1 36 -27 3 -17 -22 -24 -24 -66 -18 -26 3 -60 15 -77 25 -42 25 -52 23 -47 -11z"/>
    <path d="M2310 5551 c0 -10 7 -24 15 -31 12 -10 16 -8 25 15 13 35 14 35 -15 35 -18 0 -25 -5 -25 -19z"/>
    <path d="M2012 5480 c-7 -11 -10 -20 -6 -20 13 0 44 21 44 30 0 17 -25 11 -38 -10z"/>
    <path d="M2300 5456 c0 -26 -13 -35 -25 -16 -9 15 -22 12 -29 -6 -8 -20 32 -64 58 -64 16 0 18 -5 12 -49 -5 -37 -3 -51 9 -61 8 -7 15 -25 15 -40 0 -16 13 -42 33 -65 28 -32 40 -38 82 -42 53 -4 90 9 109 39 14 23 0 35 -24 20 -11 -7 -32 -12 -47 -12 l-28 1 28 15 c36 19 26 34 -23 34 -32 0 -43 6 -69 37 -18 22 -33 54 -37 79 -4 31 -11 44 -26 47 -17 5 -19 13 -16 53 2 31 -1 48 -9 51 -8 3 -13 -5 -13 -21z"/>
    <path d="M2915 5461 c-11 -10 19 -31 44 -31 15 0 32 -5 37 -10 14 -14 44 -2 44 16 0 8 1 17 3 21 2 8 -121 12 -128 4z"/>
    <path d="M3080 5449 c-7 -12 -23 -31 -37 -43 l-24 -21 20 -46 c28 -63 41 -73 85 -60 32 8 38 7 56 -16 12 -15 20 -41 20 -62 0 -20 5 -65 10 -100 8 -44 8 -67 0 -76 -11 -13 -4 -65 9 -65 4 0 22 13 39 28 28 25 31 33 29 75 -2 26 -9 53 -15 59 -7 7 -12 20 -12 29 0 9 -7 22 -15 29 -8 7 -15 29 -15 50 0 21 -7 43 -15 50 -30 25 -11 70 30 70 16 0 21 -6 21 -22 -1 -18 5 -24 27 -26 21 -3 27 1 27 16 0 11 -8 22 -19 25 -12 3 -21 17 -25 41 -8 42 -16 44 -55 15 -41 -30 -83 -23 -93 17 -4 17 -14 37 -22 43 -12 10 -17 8 -26 -10z m46 -66 c21 -28 17 -45 -8 -41 -17 2 -24 11 -26 31 -4 31 14 36 34 10z"/>
    <path d="M1915 5417 c-31 -19 -36 -31 -18 -44 26 -20 57 -15 82 11 23 24 23 24 3 35 -26 14 -41 13 -67 -2z"/>
    <path d="M2523 5373 c-14 -5 -18 -33 -5 -33 4 0 15 9 25 20 17 20 8 25 -20 13z"/>
    <path d="M1793 5324 c-3 -10 -14 -24 -22 -30 -13 -10 -13 -14 -2 -28 23 -27 48 -20 54 17 6 39 -18 73 -30 41z"/>
    <path d="M2577 5276 c-4 -10 -5 -21 -2 -24 9 -9 17 6 13 25 -3 17 -4 17 -11 -1z"/>
    <path d="M1700 5267 c0 -2 7 -18 16 -35 22 -46 15 -76 -18 -80 -33 -4 -37 -17 -6 -25 38 -10 92 33 70 55 -7 7 -12 23 -12 36 0 14 -8 31 -17 38 -17 13 -33 18 -33 11z"/>
    <path d="M2206 5251 c-40 -8 -42 -23 -6 -43 30 -17 30 -17 45 12 23 44 22 45 -39 31z"/>
    <path d="M2295 5120 c-11 -18 5 -30 41 -30 40 0 44 12 9 28 -32 15 -42 15 -50 2z"/>
    <path d="M2600 5020 c-25 -15 1 -31 64 -37 45 -5 56 -3 56 9 0 8 -5 19 -12 26 -14 14 -87 16 -108 2z"/>
    <path d="M2010 4818 c-30 -5 -69 -10 -85 -11 -17 -1 -44 -12 -60 -23 -17 -11 -38 -24 -48 -27 -18 -7 -37 -46 -37 -78 0 -23 32 -26 53 -5 21 22 137 64 187 69 25 2 82 -3 127 -11 95 -17 113 -10 113 43 0 30 -3 32 -51 43 -58 14 -119 14 -199 0z"/>
    <path d="M2703 4819 c-33 -12 -49 -48 -29 -67 12 -12 44 -16 151 -19 125 -2 140 -5 210 -33 41 -18 85 -40 99 -51 33 -26 46 -24 46 9 0 35 -23 68 -61 88 -17 8 -39 24 -50 35 -14 14 -28 19 -42 15 -12 -3 -46 1 -77 8 -68 17 -217 26 -247 15z"/>
    <path d="M2295 4720 c-3 -5 -17 -10 -31 -10 -24 0 -34 -23 -14 -35 19 -12 10 -35 -12 -35 -13 0 -30 -5 -38 -10 -11 -7 -7 -10 18 -10 35 0 102 -45 102 -67 0 -18 -32 -16 -56 2 -10 8 -24 15 -31 15 -19 0 29 -47 52 -52 15 -2 19 -10 17 -28 -2 -14 -8 -29 -13 -34 -5 -6 -9 -24 -9 -42 0 -18 -13 -58 -30 -89 -16 -31 -30 -70 -30 -87 0 -39 -13 -62 -62 -106 -51 -46 -158 -186 -158 -206 0 -21 19 -21 27 0 10 27 76 95 117 121 21 14 41 33 43 44 3 10 14 19 24 19 14 0 21 9 26 30 5 28 48 70 71 70 8 0 81 87 105 127 5 8 -3 22 -23 40 l-31 28 15 75 c9 41 16 92 16 113 0 37 -22 84 -47 100 -7 4 -13 15 -13 22 0 17 -26 20 -35 5z"/>
    <path d="M2614 4658 c-5 -7 -9 -32 -10 -56 l-1 -44 41 6 c78 13 128 0 136 -34 6 -23 10 -25 66 -23 32 2 101 -6 153 -18 100 -21 115 -18 109 22 -2 19 -8 23 -26 21 -13 -2 -29 1 -35 6 -26 21 -209 72 -259 73 -29 0 -75 4 -103 8 -47 6 -49 7 -27 19 12 7 20 17 17 23 -9 13 -52 11 -61 -3z"/>
    <path d="M2015 4590 c-27 -4 -67 -15 -89 -24 -21 -9 -49 -16 -62 -16 -27 0 -30 -14 -13 -72 12 -44 34 -50 51 -13 6 14 19 25 28 25 10 0 33 11 53 24 30 21 38 22 48 10 16 -20 113 -19 133 2 23 23 21 64 -3 64 -11 0 -21 -6 -24 -12 -2 -7 -3 -5 -2 5 3 19 -27 21 -120 7z"/>
    <path d="M2672 4530 c-16 -26 -8 -40 18 -33 13 3 20 14 20 29 0 29 -21 31 -38 4z"/>
    <path d="M2600 4475 c0 -15 4 -24 10 -20 6 3 10 12 10 20 0 8 -4 17 -10 20 -6 4 -10 -5 -10 -20z"/>
    <path d="M2776 4422 c-3 -5 4 -12 17 -16 36 -9 125 -7 132 4 4 6 -11 10 -38 10 -25 0 -58 3 -75 6 -16 3 -32 2 -36 -4z"/>
    <path d="M2615 4353 c-11 -3 -24 -9 -29 -14 -14 -13 13 -39 40 -39 29 0 32 -16 4 -23 -30 -8 -24 -31 14 -61 19 -14 37 -26 40 -26 14 0 5 114 -11 141 -17 29 -21 31 -58 22z"/>
    <path d="M3505 4318 c-7 -28 10 -98 25 -98 5 0 11 -8 13 -17 4 -14 5 -13 6 4 0 12 -3 25 -9 28 -5 3 -10 21 -11 38 0 18 -4 41 -9 52 -7 18 -8 18 -15 -7z"/>
    <path d="M2333 4171 c5 -20 -36 -74 -63 -83 -22 -7 -4 -36 34 -52 19 -8 39 -24 46 -35 12 -24 45 -28 54 -6 3 10 19 15 44 15 38 0 62 14 62 35 0 14 -48 37 -61 29 -21 -13 -51 11 -76 62 -25 52 -51 74 -40 35z m37 -121 c0 -5 -7 -10 -15 -10 -8 0 -15 5 -15 10 0 6 7 10 15 10 8 0 15 -4 15 -10z"/>
    <path d="M1815 4150 c-7 -12 2 -30 16 -30 5 0 9 9 9 20 0 21 -15 27 -25 10z"/>
    <path d="M2757 4153 c-11 -11 -8 -19 16 -45 12 -13 41 -46 62 -73 22 -27 51 -60 64 -74 13 -14 27 -35 32 -46 5 -11 13 -27 18 -35 6 -8 12 -28 16 -43 7 -35 22 -27 30 17 8 42 -11 82 -79 161 -109 127 -142 156 -159 138z"/>
    <path d="M1550 4100 c0 -29 35 -90 52 -90 14 0 9 47 -7 60 -8 6 -13 21 -12 33 1 13 -5 23 -15 25 -14 3 -18 -3 -18 -28z"/>
    <path d="M2552 4110 c-35 -32 -28 -50 18 -50 26 0 42 -6 48 -16 11 -20 62 -11 62 10 0 17 -47 56 -66 56 -8 0 -14 5 -14 10 0 17 -25 11 -48 -10z"/>
    <path d="M1784 4095 c-12 -31 28 -121 48 -109 5 3 1 12 -9 19 -13 10 -18 25 -16 59 1 44 -12 62 -23 31z"/>
    <path d="M3487 4103 c-13 -12 -7 -33 8 -33 8 0 15 9 15 20 0 20 -11 26 -23 13z"/>
    <path d="M3480 4025 c0 -8 5 -15 10 -15 6 0 10 7 10 15 0 8 -4 15 -10 15 -5 0 -10 -7 -10 -15z"/>
    <path d="M2262 3980 c-11 -18 -10 -20 12 -20 21 0 56 22 56 36 0 14 -57 1 -68 -16z"/>
    <path d="M3444 3985 c-8 -20 3 -48 16 -40 13 8 13 55 0 55 -6 0 -13 -7 -16 -15z"/>
    <path d="M2500 3945 c-16 -19 2 -45 32 -45 15 0 19 6 16 27 -3 32 -29 41 -48 18z"/>
    <path d="M1824 3936 c-4 -10 6 -40 25 -75 20 -38 31 -73 31 -99 0 -23 5 -44 10 -47 14 -9 12 112 -3 155 -6 20 -22 46 -34 59 -20 21 -23 22 -29 7z"/>
    <path d="M2151 3918 c-29 -30 -41 -58 -23 -58 4 0 18 12 32 26 13 14 35 30 49 36 21 7 23 11 11 18 -24 16 -36 12 -69 -22z"/>
    <path d="M2632 3938 c5 -15 37 -18 41 -3 1 6 -9 12 -22 13 -16 3 -22 -1 -19 -10z"/>
    <path d="M2866 3878 c-2 -7 -7 -25 -10 -40 -6 -26 -10 -28 -60 -28 -67 0 -116 -9 -116 -22 0 -6 9 -12 21 -15 15 -4 19 -12 17 -31 -2 -21 -10 -28 -36 -33 -43 -9 -79 -39 -59 -51 24 -13 86 11 109 42 11 16 33 32 47 35 29 7 71 38 71 53 0 5 9 12 20 15 13 3 21 14 22 31 0 14 1 31 2 38 1 16 -23 22 -28 6z"/>
    <path d="M2102 3821 c-21 -44 -15 -61 27 -79 29 -12 39 -22 38 -36 -3 -26 79 -62 118 -52 l27 7 -24 23 c-12 13 -33 26 -45 30 -25 8 -31 25 -10 27 6 1 30 1 52 0 22 -1 51 2 65 7 25 9 25 10 -12 25 -27 11 -38 22 -38 37 0 13 -5 20 -12 17 -7 -2 -12 -13 -11 -23 3 -39 -43 -46 -57 -9 -6 17 -17 25 -32 25 -13 0 -34 6 -49 13 -23 13 -26 12 -37 -12z"/>
    <path d="M2438 3773 c-35 -9 -17 -23 29 -23 43 0 45 1 27 15 -20 15 -27 16 -56 8z"/>
    <path d="M2566 3761 c-25 -5 -27 -8 -14 -19 18 -15 89 -3 96 16 4 13 -31 14 -82 3z"/>
    <path d="M1910 3673 c0 -20 17 -50 24 -43 2 3 2 17 -1 33 -6 30 -23 37 -23 10z"/>
    <path d="M2202 3578 c5 -15 58 -24 58 -10 0 11 -24 22 -47 22 -8 0 -13 -6 -11 -12z"/>
    <path d="M1952 3569 c2 -7 10 -15 17 -17 8 -3 12 1 9 9 -2 7 -10 15 -17 17 -8 3 -12 -1 -9 -9z"/>
    <path d="M2438 3550 c-10 -6 -18 -22 -18 -36 0 -21 4 -25 23 -23 12 2 28 0 35 -5 7 -4 16 -5 20 -1 3 3 0 10 -7 14 -19 12 -3 33 19 26 16 -5 38 10 28 20 -10 11 -85 14 -100 5z"/>
    <path d="M3237 3503 c-10 -101 -9 -234 3 -248 19 -22 32 -176 17 -200 -7 -11 -19 -40 -26 -65 -37 -124 -46 -147 -68 -167 -13 -13 -28 -23 -32 -23 -5 0 -11 -13 -14 -29 -4 -17 -16 -35 -29 -42 -13 -7 -54 -39 -93 -72 -38 -32 -80 -68 -93 -78 -13 -11 -27 -17 -32 -14 -5 3 -15 -2 -22 -10 -7 -9 -22 -25 -32 -35 -11 -11 -17 -23 -13 -27 9 -8 78 28 84 45 3 6 11 12 19 12 8 0 14 4 14 8 0 5 30 30 67 57 83 61 285 260 343 338 24 32 51 62 62 68 26 14 22 39 -11 74 -48 49 -88 141 -96 220 -4 39 -11 77 -16 86 -4 9 -10 46 -11 82 -5 85 -14 94 -21 20z"/>
    <path d="M2277 3393 c-7 -6 21 -32 36 -33 4 0 7 9 7 20 0 19 -28 28 -43 13z"/>
    <path d="M2814 3305 c-7 -17 4 -37 17 -30 12 8 12 45 -1 45 -6 0 -13 -7 -16 -15z"/>
    <path d="M2317 3296 c-4 -9 4 -23 20 -36 36 -28 44 -25 28 13 -14 35 -39 47 -48 23z"/>
    <path d="M2780 3245 c0 -8 7 -15 15 -15 8 0 15 7 15 15 0 8 -7 15 -15 15 -8 0 -15 -7 -15 -15z"/>
    <path d="M2500 3240 c0 -5 7 -10 15 -10 8 0 15 5 15 10 0 6 -7 10 -15 10 -8 0 -15 -4 -15 -10z"/>
    <path d="M3450 3074 c0 -3 13 -19 30 -37 16 -18 30 -35 30 -39 0 -5 11 -8 25 -8 16 0 28 -7 32 -17 28 -84 40 -97 124 -131 14 -5 46 -27 71 -48 25 -22 54 -45 64 -52 50 -33 161 -112 174 -125 8 -7 53 -42 99 -78 47 -35 96 -74 109 -86 14 -13 28 -23 31 -23 4 0 38 -30 77 -67 85 -81 109 -102 194 -167 36 -27 67 -52 70 -55 9 -10 69 -51 75 -51 12 0 75 -75 75 -90 1 -8 12 -33 25 -55 14 -22 30 -51 36 -65 5 -13 14 -27 18 -30 4 -3 28 -50 54 -105 27 -55 55 -113 63 -128 7 -16 14 -36 14 -45 0 -9 7 -30 15 -46 8 -15 15 -36 15 -45 0 -10 7 -26 15 -37 8 -10 15 -35 15 -55 0 -19 7 -44 15 -55 8 -10 15 -32 15 -47 0 -16 6 -43 14 -60 8 -18 16 -45 19 -62 3 -16 17 -61 31 -99 14 -38 26 -86 26 -107 0 -47 8 -69 26 -69 12 0 14 36 14 199 l0 200 -37 3 c-32 3 -39 7 -41 28 -2 14 -12 49 -23 78 -10 29 -19 66 -19 81 0 16 -7 31 -15 35 -9 3 -15 18 -15 36 0 16 -4 30 -10 30 -5 0 -10 11 -10 24 0 14 -4 28 -10 31 -5 3 -10 24 -10 46 0 26 -5 42 -15 45 -8 4 -15 16 -15 29 0 12 -6 27 -13 33 -7 6 -24 34 -37 62 -13 27 -30 50 -37 50 -16 0 -35 43 -37 85 -1 21 -15 43 -44 72 -28 27 -42 50 -42 67 0 27 -18 34 -37 15 -8 -8 -15 -3 -24 17 -8 16 -32 39 -54 51 -24 13 -39 29 -37 38 2 9 -5 15 -18 15 -31 0 -66 26 -155 112 -43 43 -83 78 -89 78 -15 0 -66 52 -66 67 0 7 -11 15 -25 19 -13 3 -29 12 -36 20 -6 8 -20 14 -30 14 -11 0 -25 11 -31 25 -7 15 -30 34 -56 45 -24 11 -57 31 -74 45 -16 14 -34 25 -40 25 -11 0 -71 48 -119 95 -15 14 -33 25 -42 25 -8 0 -20 7 -27 15 -7 9 -34 28 -61 42 -29 17 -55 41 -66 63 -20 36 -115 108 -145 109 -9 1 -20 6 -23 11 -7 11 -25 14 -25 4z"/>
    <path d="M2085 2888 c19 -96 55 -141 123 -154 31 -6 32 -6 32 29 0 26 -5 37 -18 41 -10 4 -45 31 -77 61 -32 30 -60 55 -62 55 -3 0 -2 -15 2 -32z"/>
    <path d="M3390 2708 c0 -7 -23 -60 -51 -118 -28 -58 -57 -118 -64 -135 -7 -16 -25 -56 -39 -89 -32 -71 -34 -99 -6 -63 11 14 20 34 20 45 0 11 6 27 14 35 21 20 56 80 56 94 0 6 10 29 23 50 28 49 67 143 67 165 0 9 -4 20 -10 23 -5 3 -10 0 -10 -7z"/>
    <path d="M3570 2645 c0 -10 7 -15 18 -13 21 4 19 22 -2 26 -10 2 -16 -3 -16 -13z"/>
    <path d="M3620 2623 c0 -13 50 -56 57 -50 3 4 -5 18 -18 32 -24 25 -39 32 -39 18z"/>
    <path d="M3707 2564 c-11 -11 3 -24 24 -24 12 0 19 5 17 13 -5 14 -31 21 -41 11z"/>
    <path d="M1346 2531 c-6 -9 43 -35 52 -27 2 3 2 12 -1 21 -7 16 -42 21 -51 6z"/>
    <path d="M1670 2480 c0 -11 -4 -20 -9 -20 -9 0 -19 -21 -81 -155 -29 -63 -43 -126 -31 -138 7 -7 12 -4 16 9 4 10 18 44 32 74 15 30 32 66 38 80 7 14 18 48 25 75 7 28 17 54 21 60 12 13 11 35 -1 35 -5 0 -10 -9 -10 -20z"/>
    <path d="M1183 2477 c-4 -7 -27 -21 -50 -31 -23 -10 -50 -27 -59 -37 -10 -11 -26 -19 -36 -19 -10 0 -36 -9 -58 -20 -22 -11 -55 -20 -75 -20 -26 0 -35 -4 -35 -17 0 -9 -7 -25 -17 -35 -15 -16 -15 -18 0 -18 9 0 21 9 27 20 6 11 17 20 24 20 8 0 38 12 66 27 50 26 53 26 66 9 12 -17 15 -16 61 15 26 19 53 39 58 45 6 6 25 21 43 33 17 12 32 27 32 32 0 14 -38 11 -47 -4z"/>
    <path d="M2716 2466 c-26 -13 -51 -27 -55 -32 -10 -15 -97 -54 -119 -54 -12 0 -42 11 -68 25 -59 31 -70 31 -78 0 -4 -15 -17 -30 -31 -35 -33 -13 -55 -58 -34 -71 18 -12 83 -2 138 22 24 10 49 19 56 19 7 0 18 7 25 15 7 8 25 15 40 15 15 0 33 7 40 15 7 8 20 15 30 15 10 0 23 7 30 15 7 8 18 15 25 15 22 0 75 34 75 48 0 18 -19 15 -74 -12z"/>
    <path d="M1476 2412 c-27 -37 -87 -130 -133 -206 -46 -76 -101 -166 -123 -199 -22 -32 -40 -66 -40 -74 0 -17 -125 -205 -196 -295 -24 -31 -53 -60 -64 -63 -11 -4 -20 -13 -20 -21 0 -12 4 -12 20 -4 11 6 20 14 20 19 0 4 13 14 29 22 74 37 234 267 466 672 96 168 118 218 98 217 -5 -1 -30 -31 -57 -68z"/>
    <path d="M1294 2408 c-65 -70 -102 -118 -124 -163 -8 -16 -18 -34 -23 -40 -48 -63 -77 -105 -77 -112 0 -5 -12 -22 -27 -39 -30 -34 -49 -60 -60 -84 -4 -8 -13 -21 -20 -28 -15 -15 -17 -32 -5 -32 8 0 52 55 52 65 0 3 14 19 30 35 17 16 30 32 30 35 0 3 8 13 18 23 9 10 24 29 32 42 8 13 27 38 43 55 15 18 27 35 27 39 0 7 37 56 121 161 31 39 59 78 62 88 13 35 -21 16 -79 -45z"/>
    <path d="M3922 2408 c5 -15 28 -18 29 -3 0 6 -7 12 -17 13 -10 3 -15 -1 -12 -10z"/>
    <path d="M3990 2370 c0 -5 6 -10 14 -10 8 0 18 5 21 10 3 6 -3 10 -14 10 -12 0 -21 -4 -21 -10z"/>
    <path d="M3927 2263 c-10 -10 -8 -63 2 -63 11 0 21 25 21 51 0 19 -11 25 -23 12z"/>
    <path d="M2032 2244 c1 -9 9 -19 16 -22 9 -3 13 2 10 14 -1 9 -9 19 -16 22 -9 3 -13 -2 -10 -14z"/>
    <path d="M760 2192 c-25 -25 -71 -75 -103 -111 -56 -63 -58 -66 -35 -72 21 -5 23 -10 20 -60 -2 -30 -10 -92 -19 -139 -8 -47 -21 -130 -28 -185 -7 -55 -22 -143 -33 -195 -12 -52 -25 -149 -29 -214 -8 -121 -20 -150 -40 -99 -10 25 -11 26 -12 6 -1 -12 3 -25 9 -28 5 -3 12 -28 16 -55 4 -31 12 -50 20 -50 22 0 26 18 29 116 4 108 44 305 80 389 16 37 82 174 95 195 75 127 100 172 100 179 0 5 7 11 15 15 8 3 15 14 15 25 0 11 6 24 13 28 14 9 35 40 43 65 3 9 12 19 20 22 8 3 14 11 14 18 0 7 23 38 51 68 69 76 93 121 36 68 -93 -86 -127 -123 -141 -153 -10 -19 -21 -35 -26 -35 -6 0 -10 -6 -10 -13 0 -8 -9 -22 -20 -32 -11 -10 -20 -23 -20 -28 0 -6 -10 -24 -23 -41 -12 -17 -32 -49 -44 -71 -11 -22 -30 -56 -42 -75 -12 -19 -26 -48 -32 -63 -6 -15 -16 -26 -23 -24 -13 5 -11 99 4 142 6 17 13 59 16 95 3 36 7 81 8 100 3 41 32 110 46 110 6 0 10 5 10 12 0 6 7 18 15 27 64 70 83 95 79 103 -10 16 -29 5 -74 -40z"/>
    <path d="M3897 2146 c-10 -26 -8 -84 2 -91 12 -7 31 26 31 52 0 11 -6 27 -13 37 -13 18 -14 18 -20 2z"/>
    <path d="M530 1925 c0 -8 5 -15 10 -15 6 0 10 7 10 15 0 8 -4 15 -10 15 -5 0 -10 -7 -10 -15z"/>
    <path d="M494 1883 c-3 -10 -12 -30 -20 -45 -8 -14 -14 -37 -14 -50 0 -13 -4 -28 -9 -33 -16 -18 -40 -109 -41 -155 -2 -140 31 -442 47 -426 2 2 4 98 4 212 0 150 4 223 14 259 29 105 56 235 50 245 -10 16 -25 12 -31 -7z"/>
    <path d="M980 1783 c0 -5 -34 -44 -75 -87 -68 -72 -90 -106 -66 -106 5 0 26 21 47 48 21 26 44 51 51 55 7 4 13 13 13 18 0 6 14 22 30 36 17 13 30 29 30 34 0 11 -30 12 -30 2z"/>
    <path d="M3837 1784 c-9 -9 4 -35 14 -28 5 3 9 12 9 20 0 14 -12 19 -23 8z"/>
    <path d="M1447 1682 c-18 -20 -23 -62 -7 -62 10 0 40 52 40 70 0 16 -15 12 -33 -8z"/>
    <path d="M4047 1558 c-78 -87 -106 -121 -128 -162 -20 -38 -58 -114 -69 -141 -66 -156 -80 -191 -80 -207 0 -10 -4 -18 -10 -18 -5 0 -10 -17 -10 -37 0 -33 9 -20 76 112 41 83 85 173 97 200 25 58 111 197 146 234 12 15 37 41 54 59 28 29 29 32 11 32 -13 0 -46 -28 -87 -72z"/>
    <path d="M790 1558 c-33 -51 -51 -91 -44 -97 4 -3 9 -1 11 6 2 6 13 21 24 34 10 12 19 28 19 34 0 7 7 15 15 19 8 3 15 10 15 16 0 18 -25 11 -40 -12z"/>
    <path d="M3707 1482 c-10 -26 -17 -57 -17 -68 0 -12 -9 -57 -20 -100 -11 -44 -20 -93 -20 -109 0 -17 -6 -55 -13 -85 -15 -60 -40 -174 -57 -259 -21 -108 -22 -227 -5 -450 9 -123 15 -239 11 -259 -3 -19 -3 -62 1 -94 5 -52 8 -58 29 -58 21 0 22 3 17 54 -4 34 -2 56 6 60 6 4 11 18 11 31 0 13 6 28 14 32 17 10 56 95 56 122 0 12 4 21 8 21 10 0 47 108 40 116 -10 10 -63 -71 -104 -159 -19 -41 -30 -54 -36 -45 -11 17 -1 590 11 648 9 41 17 89 40 240 5 30 14 71 20 90 6 19 11 51 11 70 0 20 4 40 9 46 12 13 24 191 13 197 -4 3 -16 -15 -25 -41z"/>
    <path d="M827 1489 c-10 -11 -17 -25 -15 -31 2 -6 14 3 27 20 25 35 17 42 -12 11z"/>
    <path d="M3552 1469 c-8 -12 -18 -60 -22 -108 -5 -47 -14 -110 -19 -140 -6 -29 -11 -76 -11 -103 0 -27 -4 -57 -9 -66 -16 -30 -34 -213 -22 -225 15 -15 19 4 24 96 3 42 9 83 15 90 6 6 15 47 21 91 6 43 14 82 16 87 7 10 28 175 27 202 -1 9 -2 35 -3 57 -1 22 -2 40 -3 40 -1 0 -7 -10 -14 -21z"/>
    <path d="M883 1420 c-13 -15 -23 -33 -23 -39 0 -6 -4 -11 -9 -11 -4 0 -27 -29 -51 -66 -23 -36 -50 -73 -59 -82 -29 -28 -81 -121 -81 -144 0 -12 -7 -29 -15 -38 -8 -8 -22 -53 -31 -99 -14 -69 -14 -86 -4 -107 8 -13 16 -24 20 -24 7 0 30 138 30 178 0 12 11 39 24 60 13 20 27 53 31 72 9 41 23 64 88 145 27 33 52 67 55 75 3 8 18 33 34 54 15 21 28 43 28 48 0 15 -15 7 -37 -22z"/>
    <path d="M720 1419 c0 -11 -18 -55 -39 -97 -50 -97 -63 -131 -55 -144 4 -6 13 2 20 18 8 16 23 43 34 59 11 17 23 37 27 45 3 8 26 41 51 73 44 58 49 82 12 59 -12 -7 -21 -8 -25 -2 -11 17 -25 11 -25 -11z"/>
    <path d="M330 1379 c0 -17 4 -28 10 -24 6 3 10 17 10 31 0 13 -4 24 -10 24 -5 0 -10 -14 -10 -31z"/>
    <path d="M3913 1152 c-25 -28 -28 -38 -13 -47 8 -5 45 64 38 70 -2 1 -13 -9 -25 -23z"/>
    <path d="M233 1034 c-3 -8 -1 -25 5 -37 10 -20 11 -18 11 16 1 39 -5 48 -16 21z"/>
    <path d="M330 976 c0 -38 87 -146 118 -146 19 0 15 6 -31 52 -23 24 -52 56 -65 72 -12 16 -22 26 -22 22z"/>
    <path d="M2064 967 c-4 -10 -2 -23 3 -28 14 -14 24 13 13 32 -7 11 -10 10 -16 -4z"/>
    <path d="M515 937 c-4 -10 -5 -21 -1 -24 10 -10 18 4 13 24 -4 17 -4 17 -12 0z"/>
    <path d="M253 920 c4 -14 7 -31 7 -37 0 -7 5 -13 10 -13 16 0 11 46 -7 61 -15 13 -16 11 -10 -11z"/>
    <path d="M1765 879 c-4 -17 -4 -33 -1 -36 9 -9 12 -2 19 35 8 41 -9 42 -18 1z"/>
    <path d="M2031 892 c-14 -27 -14 -32 3 -32 21 0 29 17 18 37 -9 15 -11 14 -21 -5z"/>
    <path d="M280 841 c0 -29 74 -168 102 -191 22 -19 48 -26 48 -14 0 3 -13 23 -29 43 -15 20 -45 69 -66 109 -38 72 -55 89 -55 53z"/>
    <path d="M490 795 c25 -27 40 -32 40 -14 0 15 -30 38 -49 39 -10 0 -7 -8 9 -25z"/>
    <path d="M1995 800 c-14 -15 -16 -23 -7 -32 17 -17 42 -1 42 27 0 30 -11 32 -35 5z"/>
    <path d="M218 708 c-32 -35 -36 -58 -9 -58 27 0 43 24 39 58 l-3 30 -27 -30z"/>
    <path d="M576 731 c-3 -5 1 -12 10 -15 20 -8 29 -1 19 13 -8 13 -22 14 -29 2z"/>
    <path d="M1955 710 c-7 -22 11 -53 26 -44 5 3 9 18 9 35 0 34 -25 40 -35 9z"/>
    <path d="M3722 700 c0 -19 2 -27 5 -17 2 9 2 25 0 35 -3 9 -5 1 -5 -18z"/>
    <path d="M4183 703 c-7 -3 -13 -14 -13 -26 0 -21 0 -21 16 1 17 25 16 32 -3 25z"/>
    <path d="M1940 625 c-5 -14 -14 -25 -19 -25 -12 0 -34 -77 -26 -90 9 -15 33 0 43 28 13 33 24 112 17 112 -3 0 -10 -11 -15 -25z"/>
    <path d="M3690 598 c0 -31 3 -39 10 -28 13 20 13 57 0 65 -6 4 -10 -11 -10 -37z"/>
    <path d="M197 615 c-7 -16 8 -29 23 -20 10 6 2 35 -10 35 -4 0 -10 -7 -13 -15z"/>
    <path d="M4098 590 c-20 -19 -23 -30 -8 -30 9 0 35 39 28 45 -2 1 -11 -5 -20 -15z"/>
    <path d="M290 575 c0 -8 4 -15 9 -15 5 0 13 -9 16 -20 7 -22 83 -75 93 -66 5 6 -102 116 -113 116 -3 0 -5 -7 -5 -15z"/>
    <path d="M4335 579 c-10 -15 1 -23 20 -15 9 3 13 10 10 16 -8 13 -22 13 -30 -1z"/>
    <path d="M175 540 c-7 -23 2 -43 16 -35 12 8 12 42 0 50 -5 3 -12 -4 -16 -15z"/>
    <path d="M3860 550 c-8 -5 -11 -12 -7 -16 4 -4 13 -2 19 4 15 15 7 24 -12 12z"/>
    <path d="M126 484 c-20 -20 -20 -33 0 -41 20 -8 49 21 41 41 -8 20 -21 20 -41 0z"/>
    <path d="M3871 434 c-30 -30 -58 -54 -63 -54 -4 0 -8 -7 -8 -15 0 -8 3 -15 6 -15 9 0 144 126 144 135 0 17 -32 -4 -79 -51z"/>
    <path d="M4231 432 c-18 -18 -31 -35 -28 -39 8 -7 70 54 65 65 -2 4 -18 -7 -37 -26z"/>
    <path d="M3656 434 c-9 -23 4 -70 15 -52 11 17 11 55 0 62 -5 3 -12 -1 -15 -10z"/>
    <path d="M2136 418 c-9 -12 -16 -30 -16 -40 0 -10 -11 -50 -24 -90 -32 -96 -42 -148 -27 -148 6 0 11 10 11 22 0 12 6 29 14 37 12 14 58 151 73 219 7 28 -11 29 -31 0z"/>
    <path d="M1830 325 c0 -48 4 -85 10 -85 15 0 29 35 24 57 -3 12 -1 30 6 42 9 17 7 26 -7 46 -10 13 -21 25 -25 25 -5 0 -8 -38 -8 -85z"/>
    <path d="M4165 369 c-10 -15 3 -25 16 -12 7 7 7 13 1 17 -6 3 -14 1 -17 -5z"/>
    <path d="M152 338 c-7 -7 -12 -26 -12 -42 0 -17 -7 -40 -15 -50 -8 -11 -15 -27 -15 -37 0 -9 -7 -22 -15 -29 -8 -7 -15 -24 -15 -39 0 -15 -4 -31 -9 -36 -4 -6 -13 -23 -19 -40 -5 -16 -13 -38 -17 -47 -6 -15 -2 -18 21 -18 26 1 32 8 57 63 15 34 27 66 27 71 0 18 52 86 62 80 5 -3 15 0 23 6 12 10 18 10 30 0 8 -7 25 -10 37 -6 13 3 44 -2 69 -11 46 -16 86 -12 74 7 -3 5 -19 10 -34 10 -16 0 -34 6 -40 14 -7 8 -26 18 -42 21 -16 4 -29 10 -29 15 0 4 -12 12 -28 18 -15 5 -39 21 -52 35 -28 30 -40 33 -58 15z"/>
    <path d="M4072 260 c-7 -12 -24 -26 -37 -32 -14 -6 -25 -16 -25 -21 0 -12 -27 -35 -58 -47 -23 -10 -39 -36 -28 -47 8 -9 75 39 82 59 3 9 14 20 25 23 20 7 79 64 79 78 0 15 -26 6 -38 -13z"/>
    <path d="M470 180 c0 -5 13 -10 29 -10 17 0 33 5 36 10 4 6 -8 10 -29 10 -20 0 -36 -4 -36 -10z"/>
    <path d="M1830 138 c0 -29 2 -31 15 -17 9 9 13 23 9 32 -10 28 -24 19 -24 -15z"/>
    <path d="M620 151 c0 -6 8 -11 19 -11 14 0 20 -10 25 -37 14 -80 26 -103 53 -103 24 0 25 1 18 52 -9 64 -30 98 -60 98 -13 0 -30 3 -39 6 -9 3 -16 1 -16 -5z"/>
    <path d="M1216 77 c3 -9 -1 -28 -10 -42 -22 -33 -21 -35 14 -35 25 0 30 4 30 24 0 13 -9 34 -20 47 -14 17 -18 19 -14 6z"/>
    <path d="M 257.848 1101.01 C 257.848 1138.593 296.569 1318.733 311.22 1348.54 C 322.732 1373.164 336.336 1382.235 336.336 1366.684 C 336.336 1362.796 329.534 1336.877 321.162 1310.957 C 313.313 1285.038 297.616 1221.535 286.627 1169.697 C 266.743 1076.387 257.848 1054.356 257.848 1101.01 Z" style="" transform="matrix(-1, 0, 0, -1, 594.18399, 2451.707764)"/>
  </g>
</svg>